<svg width="400" height="87" viewBox="0 0 400 87" fill="none" xmlns="http://www.w3.org/2000/svg">
<g clip-path="url(#clip0_3_16)">
<path d="M389.757 37.1673V42.5097H388.512V37.1673H386.343V36.0627H391.906V37.1673H389.757Z" fill="black"/>
<path d="M398.715 37.328L397.028 42.4093H395.722L394.055 37.328V42.5097H392.87L393.091 36.0627H394.838L396.505 41.1239L398.072 36.0627H399.799L400 42.5097H398.795L398.715 37.328Z" fill="black"/>
<path d="M99.0785 64.1605L101.569 63.8994C103.798 63.5379 104.561 63.1965 104.561 62.6341V24.4741C104.561 23.9117 104.14 23.7711 100.946 23.4297L99.1387 23.2088L98.9379 21.9033H119.022C132.619 21.9033 138.383 24.7352 138.383 31.8249C138.383 37.087 133.242 40.1398 126.112 41.3248V41.6863C134.427 42.4495 140.171 46.3257 140.171 52.9937C140.171 60.5453 134.407 65.4057 120.087 65.4057H98.8174L99.0785 64.1605ZM116.893 41.6863C122.236 41.8269 126.935 39.0552 126.935 32.6082C126.935 26.5829 122.637 23.6506 117.094 23.6506H115.909V41.6863H116.893ZM119.323 63.9597C121.92 63.7144 124.319 62.4684 126.014 60.4855C127.708 58.5026 128.564 55.9382 128.401 53.3351C128.401 46.6873 123.26 43.0118 117.235 43.0118C116.773 42.9749 116.31 42.9749 115.849 43.0118V63.0961L118.902 64.0601L119.323 63.9597Z" fill="black"/>
<path d="M143.002 50.1618C143.002 41.144 150.213 33.8534 160.757 33.8534C171.301 33.8534 177.688 41.2042 177.688 49.9208C177.688 59.0792 170.538 66.3497 159.933 66.3497C149.329 66.3497 143.002 58.9587 143.002 50.1618ZM166.722 50.7041C166.722 42.5298 165.336 38.4326 163.529 36.6451C163.125 36.2364 162.638 35.9192 162.101 35.7148C161.564 35.5103 160.989 35.4235 160.415 35.4602C156.117 35.4602 153.828 40.8628 153.828 49.3986C153.828 57.9344 155.053 61.7705 156.861 63.7789C157.301 64.1831 157.817 64.4959 158.379 64.6993C158.941 64.9027 159.537 64.9926 160.134 64.9639C164.352 64.8635 166.642 59.0993 166.642 50.7041H166.722Z" fill="black"/>
<path d="M197.431 59.7621H197.23C193.956 63.5781 191.044 66.3497 187.188 66.3497C186.226 66.3846 185.267 66.2292 184.365 65.8924C183.464 65.5557 182.637 65.0442 181.934 64.3874C181.23 63.7306 180.664 62.9413 180.266 62.0648C179.868 61.1884 179.647 60.242 179.616 59.2801C179.616 53.8774 184.557 50.6238 197.451 47.2295V45.2211C197.672 40.5013 195.101 36.846 190.462 36.846C187.891 36.846 186.786 37.5288 186.786 38.2318C186.786 38.9347 188.996 40.5013 188.996 42.5298C188.903 43.6738 188.365 44.7358 187.497 45.4871C186.63 46.2383 185.502 46.6188 184.356 46.5467C181.846 46.5467 179.777 45.2412 179.777 42.811C179.777 37.6694 189.417 33.994 196.346 33.994C204.38 33.994 207.794 37.4083 207.513 45.3014L206.971 57.5126C206.83 60.224 207.855 61.2483 209.381 61.2483C210.365 61.2483 211.389 60.1437 212.374 59.0993L213.056 59.8625C211.048 62.4333 207.513 66.3899 203.778 66.3899C200.403 66.2493 197.913 63.9597 197.431 59.7621ZM197.089 58.2357L197.491 48.4547C191.124 50.1819 189.176 52.4715 189.176 55.8858C189.108 56.4523 189.161 57.0269 189.332 57.5714C189.503 58.1158 189.788 58.6176 190.168 59.0432C190.548 59.4689 191.014 59.8087 191.536 60.04C192.058 60.2713 192.623 60.3888 193.193 60.3847C193.966 60.313 194.715 60.0749 195.388 59.6866C196.06 59.2983 196.641 58.7691 197.089 58.1353V58.2357Z" fill="black"/>
<path d="M212.655 64.1605H213.559C215.567 64.0199 216.33 63.8191 216.33 62.9756V44.8998C216.33 40.6017 215.768 40.0595 213.418 39.3565L212.032 39.0151V38.1113L226.473 34.0945L226.332 44.3575H226.533C228.762 37.8301 231.594 34.0141 235.892 34.0141C236.637 33.9569 237.386 34.0615 238.087 34.3209C238.788 34.5802 239.425 34.9881 239.953 35.5166C240.482 36.0451 240.89 36.6816 241.149 37.3826C241.408 38.0835 241.513 38.8323 241.456 39.5774C241.437 40.8246 240.946 42.0181 240.081 42.9166C239.216 43.8152 238.042 44.3517 236.796 44.4177C235.552 44.408 234.347 43.9782 233.377 43.1981C232.407 42.418 231.73 41.3333 231.454 40.1197C229.445 40.6017 227.859 42.9717 226.332 47.9526V63.076C226.332 63.6986 226.874 64.0601 229.787 64.2609H231.052L231.253 65.4459H212.394L212.655 64.1605Z" fill="black"/>
<path d="M264.994 60.224L264.854 60.0834C263.637 61.8398 262.049 63.3077 260.203 64.3835C258.357 65.4593 256.297 66.1168 254.169 66.3095C247.099 66.3095 241.616 59.7219 241.616 51.2062C241.616 40.18 250.353 34.1346 259.29 34.1346C261.2 34.0722 263.106 34.358 264.914 34.9781C264.914 34.9781 264.914 35.0986 264.914 34.9781V27.6273C264.914 24.1527 264.432 23.3896 262.544 22.9075L259.913 22.1443L260.054 21.3008L274.956 18.3886V57.9344C274.956 61.3286 275.378 62.0918 277.386 62.6341L279.395 63.1362L279.254 64.0199L264.974 66.3899L264.994 60.224ZM264.994 58.4767V41.2846C262.986 37.8904 260.274 35.661 258.467 35.661C254.651 35.661 252.442 41.0837 252.442 48.5551C252.442 55.7051 255.434 60.7663 259.873 60.7663C261.807 60.675 263.636 59.8574 264.994 58.4767Z" fill="black"/>
<path d="M280.921 64.1605L283.412 63.8994C285.621 63.5379 286.384 63.1965 286.384 62.6341V24.4741C286.384 23.9117 285.982 23.7109 282.789 23.3494L280.981 23.0883L280.781 21.9033H301.307C314.402 21.9033 321.21 25.4381 321.21 32.9898C321.21 41.0235 312.955 45.5424 300.744 45.5424C299.75 45.5532 298.756 45.4861 297.772 45.3416V62.7747C297.772 63.3371 298.113 63.6182 301.166 63.8994L303.737 64.1605L303.938 65.3455H280.7L280.921 64.1605ZM309.039 34.0342C309.039 27.2256 305.986 23.5502 300.162 23.4096L297.812 23.5502V43.8554C298.575 43.8554 299.479 44.1968 300.443 44.1968C305.404 44.1968 308.999 40.0394 308.999 34.0744L309.039 34.0342Z" fill="black"/>
<path d="M323.48 64.1605H324.383C326.392 64.0199 327.155 63.8191 327.155 62.9755V44.8997C327.155 40.6017 326.613 40.0595 324.243 39.3565L322.857 39.0151V38.1113L337.277 34.0944L337.137 44.3575H337.338C339.567 37.8301 342.399 34.0141 346.717 34.0141C347.461 33.9599 348.207 34.0668 348.906 34.3275C349.604 34.5882 350.238 34.9966 350.764 35.5247C351.29 36.0529 351.697 36.6883 351.955 37.3877C352.213 38.0872 352.317 38.8341 352.26 39.5774C352.242 40.8245 351.75 42.018 350.885 42.9166C350.02 43.8151 348.846 44.3517 347.601 44.4177C346.359 44.4071 345.157 43.9766 344.191 43.1962C343.224 42.4159 342.55 41.3316 342.278 40.1197C340.27 40.6017 338.663 42.9717 337.137 47.9526V63.076C337.137 63.6986 337.699 64.0601 340.611 64.2609H341.857L342.057 65.4459H323.198L323.48 64.1605Z" fill="black"/>
<path d="M352.542 50.1618C352.542 41.144 359.752 33.8534 370.296 33.8534C380.84 33.8534 387.227 41.2042 387.227 49.9208C387.227 59.0792 380.077 66.3497 369.472 66.3497C358.868 66.3497 352.542 58.9587 352.542 50.1618ZM376.261 50.7041C376.261 42.5298 374.875 38.4326 373.068 36.6451C372.664 36.2364 372.177 35.9192 371.64 35.7148C371.103 35.5103 370.528 35.4235 369.955 35.4602C365.656 35.4602 363.367 40.8628 363.367 49.3986C363.367 57.9344 364.692 61.7303 366.48 63.6785C366.92 64.0827 367.436 64.3955 367.998 64.5989C368.56 64.8023 369.157 64.8922 369.754 64.8635C373.971 64.8635 376.261 59.0993 376.261 50.7041Z" fill="black"/>
<path d="M84.2763 45.0002C80.4201 37.9707 71.7036 37.7699 65.4775 38.2318C65.1464 37.4366 64.7144 36.6874 64.1921 36.0024C62.1192 33.569 59.2908 31.9002 56.1584 31.2626C54.1854 30.79 52.1619 30.5607 50.1331 30.5797C51.6766 28.3375 52.3545 25.6116 52.0411 22.9075C51.8368 21.5657 51.3521 20.2819 50.6185 19.1399C49.8848 17.9979 48.9188 17.0234 47.7833 16.2797C46.3892 15.3001 44.8093 14.6165 43.1409 14.2711C41.4725 13.9257 39.751 13.9257 38.0826 14.2713C33.3628 15.3559 29.1049 19.0112 26.0321 24.5544C20.4286 34.8376 20.5491 47.0488 21.252 56.5486C21.2747 56.8902 21.3655 57.2237 21.5189 57.5298C21.6722 57.8358 21.8852 58.1081 22.1452 58.3307C22.4053 58.5533 22.7071 58.7218 23.0332 58.8262C23.3592 58.9306 23.7027 58.9688 24.0437 58.9386C24.3817 58.9133 24.7113 58.8213 25.0136 58.6681C25.3159 58.5149 25.5849 58.3034 25.8052 58.0458C26.0254 57.7882 26.1926 57.4896 26.297 57.1671C26.4014 56.8447 26.4411 56.5048 26.4137 56.167C25.7509 47.3701 25.6103 36.0828 30.5711 27.0449C31.9167 24.5946 34.8089 20.3368 39.2073 19.3125C40.1661 19.1213 41.1533 19.1223 42.1117 19.3154C43.0701 19.5085 43.9807 19.8897 44.7907 20.4372C45.3224 20.7844 45.7758 21.2389 46.1216 21.7715C46.4675 22.3041 46.6982 22.9031 46.7991 23.5301C46.8604 24.4043 46.7482 25.282 46.469 26.1127C46.1898 26.9434 45.7491 27.7107 45.1723 28.3704C43.7149 30.0323 42.0473 31.4974 40.2115 32.7287C39.7019 33.1076 39.3491 33.6606 39.2203 34.2824C39.0915 34.9043 39.1956 35.5519 39.5128 36.1021C39.83 36.6522 40.3383 37.0667 40.941 37.2668C41.5438 37.4669 42.199 37.4387 42.7823 37.1874C46.5887 35.5716 50.8147 35.2265 54.8328 36.2033C56.6847 36.549 58.3951 37.4286 59.7535 38.7339C48.667 40.2804 40.8542 43.8554 35.8934 49.6195C33.6303 52.0579 32.1597 55.1251 31.6757 58.4164C31.4641 60.0313 31.6438 61.6734 32.1996 63.2043C32.7553 64.7353 33.6709 66.1102 34.8691 67.2133C36.2452 68.437 37.8867 69.3242 39.6642 69.8052C41.4418 70.2862 43.3067 70.3477 45.1121 69.9849C54.0094 68.2778 61.1794 60.3445 64.3527 53.2548C65.7079 50.0818 66.3917 46.6628 66.3612 43.2127C71.1211 42.9114 77.3472 43.2127 79.677 47.35C80.2174 48.5232 80.4192 49.8241 80.2595 51.1058C79.6168 60.8265 71.4626 70.1054 63.6699 75.006C55.7191 80.036 46.2167 82.0192 36.9177 80.5894C36.2951 80.5894 35.7127 80.3685 35.1101 80.2279C25.2558 78.0972 16.6515 72.1392 11.19 63.6645C5.72856 55.1899 3.85733 44.8927 5.988 35.0384C8.11867 25.1841 14.0767 16.5797 22.5514 11.1183C31.026 5.65684 41.3232 3.78561 51.1775 5.91628C58.3161 7.46967 64.8588 11.0396 70.0282 16.2019C75.1976 21.3642 78.7766 27.902 80.3398 35.0384C80.3972 35.3841 80.5241 35.7145 80.7129 36.0097C80.9016 36.3049 81.1483 36.5587 81.4379 36.7558C81.7276 36.953 82.0543 37.0893 82.3981 37.1566C82.742 37.2239 83.0959 37.2207 83.4385 37.1473C83.7811 37.0739 84.1053 36.9318 84.3914 36.7295C84.6775 36.5272 84.9196 36.269 85.103 35.9705C85.2865 35.672 85.4075 35.3393 85.4587 34.9927C85.5099 34.6461 85.4903 34.2927 85.401 33.9539C83.7404 26.3757 80.0698 19.3846 74.7747 13.7147C69.4796 8.04481 62.7554 3.90541 55.3084 1.73123C47.8613 -0.442954 39.9662 -0.571674 32.4522 1.35859C24.9383 3.28884 18.0827 7.20685 12.6056 12.7011C7.12851 18.1954 3.23195 25.0631 1.32519 32.5831C-0.58157 40.1031 -0.428176 47.9977 1.76927 55.438C3.96673 62.8782 8.12714 69.5894 13.8136 74.8667C19.5 80.1441 26.5025 83.7928 34.0858 85.4297C34.7687 85.5904 35.4516 85.7109 36.0943 85.8314C38.3186 86.1939 40.5688 86.3752 42.8225 86.3737C51.1868 86.3409 59.3751 83.9685 66.4616 79.5249C74.7162 74.3432 84.7583 63.8994 85.5014 51.5878C85.7519 49.3192 85.3256 47.0271 84.2763 45.0002ZM61.2799 43.8353C61.2262 46.386 60.6806 48.9024 59.6731 51.2464C57.1224 56.9302 51.1976 63.6584 44.1882 65.0041C43.1779 65.2198 42.1314 65.1978 41.1311 64.9399C40.1307 64.682 39.204 64.1951 38.424 63.5178C37.8229 62.9602 37.3662 62.2649 37.0934 61.4917C36.8205 60.7185 36.7395 59.8906 36.8575 59.0792C37.2337 56.8179 38.2756 54.7202 39.85 53.054C44.0677 48.1936 51.0771 45.1609 61.2799 43.8353Z" fill="#005DE5"/>
</g>
<defs>
<clipPath id="clip0_3_16">
<rect width="400" height="86.37" fill="white"/>
</clipPath>
</defs>
</svg>
